<?xml version="1.0" encoding="UTF-8"?>
<svg width="128" height="128" viewBox="0 0 128 128" fill="none" xmlns="http://www.w3.org/2000/svg">
    <!-- Background Circle -->
    <circle cx="64" cy="64" r="60" fill="#2196F3"/>
    
    <!-- Notification Bell -->
    <path d="M64 38C73.941 38 82 46.059 82 56V74L90 82V86H38V82L46 74V56C46 46.059 54.059 38 64 38ZM71 90C71 94.97 67.97 98 63 98C58.03 98 55 94.97 55 90H71Z" fill="white"/>
    
    <!-- Sound Waves -->
    <path d="M40 56C40 41.64 50.64 30 65 30V34C52.85 34 43 43.85 43 56H40Z" fill="#BBDEFB"/>
    <path d="M88 56H85C85 43.85 75.15 34 63 34V30C77.36 30 88 41.64 88 56Z" fill="#BBDEFB"/>
    
    <!-- Outer Glow -->
    <circle cx="64" cy="64" r="58" stroke="#1976D2" stroke-width="4"/>
</svg>
